# xmcd
#
# Track frame offsets:
#	150
#	22325
#	42194
#	61283
#	89561
#	112259
#	140313
#
# Disc length: 2220 seconds
#
# Revision: 1
# Processed by: cddbd v1.5PL3 Copyright (c) Steve Scherf et al.
# Submitted via: audiograbber 1.81.01
#
DISCID=6408aa07
DTITLE=The Butterfield Blues Band - In My Own Dream
DYEAR=1968
DGENRE=Blues
TTITLE0=The Butterfield Blues Band - Last Hope's Gone
TTITLE1=The Butterfield Blues Band - Mine To Love
TTITLE2=The Butterfield Blues Band - Get Yourself Together
TTITLE3=The Butterfield Blues Band - Just To Be With You
TTITLE4=The Butterfield Blues Band - Morning Blues
TTITLE5=The Butterfield Blues Band - Drunk Again
TTITLE6=The Butterfield Blues Band - In My Own Dream
EXTD=
EXTT0=
EXTT1=
EXTT2=
EXTT3=
EXTT4=
EXTT5=
EXTT6=
PLAYORDER=
